<svg id="Capa_1" enable-background="new 0 0 495.054 495.054" height="512" viewBox="0 0 495.054 495.054" width="512" xmlns="http://www.w3.org/2000/svg"><g><g id="XMLID_186_"><g><path d="m202.177 66.54c0-12.52 10.15-22.68 22.68-22.68 6.26 0 11.93 2.54 16.03 6.64 4.1 4.11 6.64 9.78 6.64 16.04v69.64 151.35c0 10.64-2.92 21.08-8.45 30.18l-14.22 23.41v26.04 25.54h-169.21v-25.54l-.368-35.709 10.821-195.272.027-84.559c0-6.26 2.54-11.94 6.64-16.04s9.78-6.64 16.04-6.64c12.52 0 22.67 10.15 22.67 22.68v-28.95c0-6.26 2.54-11.93 6.64-16.03 4.11-4.1 9.77-6.64 16.04-6.64 12.52 0 22.67 10.15 22.67 22.67v19.75c0-6.26 2.54-11.93 6.64-16.03s9.78-6.64 16.04-6.64c12.52 0 22.67 10.15 22.67 22.67z" fill="#00f2a6"/></g><g fill="#05e39c"><path d="m133.162 145.147v-145.122c-5.872.253-11.154 2.733-15.045 6.615-4.1 4.1-6.64 9.77-6.64 16.03v28.95c0-.18-.009-.358-.014-.537v55.197l-.852 60.377h1.042c11.879 0 21.509-9.63 21.509-21.51z"/><path d="m178.532 145.147v-125.372c-5.873.249-11.18 2.729-15.066 6.615-4.041 4.041-6.562 9.609-6.633 15.762v73.948l-.53 50.556h.72c11.879.001 21.509-9.629 21.509-21.509z"/><path d="m223.879 145.147v-101.262c-12.03.511-21.626 10.388-21.699 22.518v70.038l.189 30.217c11.88-.001 21.51-9.631 21.51-21.511z"/></g></g><path d="m270.202 383.34v104.224c0 4.136 3.353 7.489 7.489 7.489h154.395c4.136 0 7.489-3.353 7.489-7.489v-104.224z" fill="#eaf9fa"/><g><path d="m224.852 490.328v-116.176h-169.373v116.176c0 2.61 2.115 4.725 4.725 4.725h159.923c2.609.001 4.725-2.115 4.725-4.725z" fill="#eaf9fa"/></g><path d="m88.559 190.013-.771-161.047c-5.871.25-11.174 2.731-15.059 6.615-4.1 4.1-6.64 9.78-6.64 16.04v84.56l-1.635 30.477-7.956 148.302-1.23 16.493.341 17.075v18.633 25.54h23.15v-25.54-6.783c0-6.97 5.544-12.676 12.511-12.876l10.353-.298c13.911-.413 26.903-6.13 36.584-16.101 9.694-9.985 15.033-23.144 15.033-37.052v-27.2c0-36.037-26.209-66.067-60.564-72.026-2.361-.408-4.106-2.416-4.117-4.812z" fill="#05e39c"/><g id="XMLID_185_"><path d="m136.277 266.85v27.2c0 9.79-3.89 18.68-10.23 25.21-6.33 6.52-15.11 10.66-24.89 10.95l-45.853.738c0-4.07-1.897-7.228-5.477-9.148l-7.62-4.08c-12.86-6.9-20.89-20.31-20.89-34.9v-125.16c0-13.89 11.26-25.15 25.15-25.15 6.94 0 13.23 2.81 17.78 7.37 4.56 4.55 7.37 10.84 7.37 17.78v53.09h8.57c30.98 0 56.09 25.12 56.09 56.1z" fill="#00f2a6"/></g><path d="m82.653 322.086-7.62-4.08c-12.86-6.9-20.89-20.31-20.89-34.9v-125.16c0-7.693 3.458-14.575 8.899-19.188-4.426-3.892-10.227-6.248-16.575-6.248-13.89 0-25.15 11.26-25.15 25.15v125.16c0 14.59 8.03 28 20.89 34.9l7.62 4.08c3.58 1.92 5.477 5.078 5.477 9.148l32.777-.527c-.241-3.674-2.094-6.547-5.428-8.335z" fill="#05e39c"/><path d="m55.479 374.152v46.916 69.26c0 2.61 2.115 4.725 4.725 4.725h30.079v-51.108c0-12.635 10.243-22.877 22.877-22.877h111.692v-35.456-11.46z" fill="#d4f2f6"/><path d="m227.934 404.069h-174.053c-10.193 0-18.456-8.263-18.456-18.456 0-10.193 8.263-18.456 18.456-18.456h174.053c10.193 0 18.456 8.263 18.456 18.456 0 10.192-8.263 18.456-18.456 18.456z" fill="#eaf9fa"/><g><g id="XMLID_188_"><g><path d="m383.577 51.62c0-12.53 10.15-22.68 22.67-22.68 6.26 0 11.94 2.54 16.04 6.64s6.64 9.78 6.64 16.04v84.56 106.57l10.65 8.19-.17 80.58v35.64h.17v23.46c0-.51-169.38 0-169.38 0v-23.46-26.04l-14.22-23.41c-5.53-9.1-8.45-19.54-8.45-30.18v-151.35-69.64c0-6.26 2.54-11.93 6.64-16.04 4.1-4.1 9.77-6.64 16.03-6.64 12.53 0 22.68 10.16 22.68 22.68v-24.12c0-12.52 10.15-22.67 22.67-22.67 6.26 0 11.94 2.54 16.04 6.64s6.64 9.77 6.64 16.03v-19.75c0-12.52 10.15-22.67 22.67-22.67 6.27 0 11.93 2.54 16.04 6.64 4.1 4.1 6.64 9.77 6.64 16.03z" fill="#00f2a6"/></g></g><g><path d="m270.197 390.62s10.211-.031 25.614-.07v-23.39-19.454c0-4.308-1.183-8.533-3.419-12.215l-10.802-17.781c-5.53-9.1-8.45-19.54-8.45-30.18v-151.35-69.64c0-6.26 2.54-11.93 6.64-16.04.988-.988 2.069-1.882 3.225-2.675-3.645-2.499-8.054-3.965-12.809-3.965-6.26 0-11.93 2.54-16.03 6.64-4.1 4.11-6.64 9.78-6.64 16.04v69.64 151.35c0 10.64 2.92 21.08 8.45 30.18l14.22 23.41v26.04 23.46z" fill="#05e39c"/></g><g fill="#05e39c"><path d="m292.872 166.657c14.146 0 25.614-11.468 25.614-25.614v-29.085-69.64c0-6.26 2.54-11.93 6.64-16.04.967-.967 2.025-1.841 3.154-2.622-3.764-2.555-8.342-4.012-13.257-3.901-12.4.281-22.146 10.774-22.146 23.176v23.609c0-.06-.004-.119-.005-.179v45.597z"/><path d="m338.214 166.657c14.146 0 25.614-11.468 25.614-25.614v-51.625-69.64c0-6.26 2.54-11.93 6.64-16.04.367-.367.759-.707 1.15-1.047-3.269-1.757-7.017-2.738-11.006-2.689-12.499.154-22.384 10.713-22.384 23.213v19.205c0-.171-.009-.341-.013-.511v47.509z"/><path d="m383.583 166.657c14.146 0 25.614-11.468 25.614-25.614v-35.888-69.64c0-2.167.311-4.261.879-6.247-1.246-.212-2.524-.328-3.829-.328-12.435 0-22.527 10.014-22.664 22.426v53.789z"/></g></g><path d="m270.202 383.34v37.728 66.496c0 4.136 3.353 7.489 7.489 7.489h25.258c-.236-.728-.366-1.502-.366-2.308v-50.222c0-11.849 9.606-21.455 21.455-21.455h115.538v-32.548-5.181h-169.374z" fill="#d4f2f6"/><path d="m64.077 385.612c0-10.193 8.263-18.456 18.456-18.456h-28.652c-10.193 0-18.456 8.263-18.456 18.456 0 10.193 8.263 18.456 18.456 18.456h28.653c-10.194 0-18.457-8.263-18.457-18.456z" fill="#d4f2f6"/><path d="m266.483 404.069h179.327c10.193 0 18.456-8.263 18.456-18.456 0-10.193-8.263-18.456-18.456-18.456h-179.327c-10.193 0-18.456 8.263-18.456 18.456 0 10.192 8.263 18.456 18.456 18.456z" fill="#eaf9fa"/><path d="m276.68 385.612c0-10.193 8.263-18.456 18.456-18.456h-28.653c-10.193 0-18.456 8.263-18.456 18.456 0 10.193 8.263 18.456 18.456 18.456h28.653c-10.193 0-18.456-8.263-18.456-18.456z" fill="#d4f2f6"/><g id="XMLID_187_"><g><path d="m473.737 157.66v125.16c0 14.59-8.03 28-20.89 34.9l-7.62 4.08c-3.58 1.92-5.82 5.65-5.82 9.72l-43.74-.31c-10.21-.07-19.43-4.25-26.1-10.97s-10.79-15.98-10.79-26.19v-27.2c0-30.98 25.11-56.1 56.09-56.1h8.57v-53.09c0-6.94 2.81-13.23 7.37-17.78 4.55-4.56 10.84-7.37 17.78-7.37 13.89 0 25.15 11.26 25.15 25.15z" fill="#00f2a6"/></g></g><path d="m375.389 309.555v-27.2c0-30.983 25.117-56.1 56.1-56.1 4.728 0 8.56-3.832 8.56-8.56v-44.53c0-6.94 2.81-13.23 7.37-17.78 4.55-4.56 10.84-7.37 17.78-7.37 2.435 0 4.786.353 7.012.998-3.526-9.63-12.772-16.503-23.624-16.503-6.94 0-13.23 2.81-17.78 7.37-4.56 4.55-7.37 10.84-7.37 17.78v53.09h-8.57c-30.978 0-56.09 25.112-56.09 56.09v27.21c0 10.21 4.12 19.47 10.79 26.19 3.034 3.057 6.599 5.58 10.541 7.438-3.001-5.365-4.719-11.544-4.719-18.123z" fill="#05e39c"/></g></svg>