<svg id="Layer_1" enable-background="new 0 0 512 512" height="512" viewBox="0 0 512 512" width="512" xmlns="http://www.w3.org/2000/svg"><g><g><g><path d="m424.642 347.319h-337.284c-48.169 0-87.358-38.812-87.358-86.519v-9.6c0-47.707 39.189-86.519 87.358-86.519h337.283c48.169 0 87.358 38.812 87.358 86.519v9.601c.001 47.706-39.188 86.518-87.357 86.518zm-337.284-167.638c-39.898 0-72.358 32.083-72.358 71.519v9.601c0 39.436 32.46 71.519 72.358 71.519h337.283c39.898 0 72.358-32.083 72.358-71.519v-9.601c0-39.436-32.46-71.519-72.358-71.519z" fill="#c2d8ed"/></g></g><g><g><path d="m256 404.979c-47.061 0-93.419-7.859-137.787-23.358-17.673-6.174-29.546-22.751-29.546-41.249v-168.744c0-18.499 11.874-35.075 29.546-41.249 44.369-15.499 90.727-23.358 137.787-23.358s93.419 7.859 137.788 23.358c17.673 6.174 29.546 22.751 29.546 41.249v168.744c0 18.499-11.874 35.076-29.546 41.249-44.369 15.499-90.727 23.358-137.788 23.358z" fill="#fff6db"/><path d="m393.788 130.379c-44.369-15.499-90.727-23.358-137.788-23.358-6.683 0-13.349.177-20 .493 40.184 1.911 79.719 9.567 117.788 22.865 17.672 6.174 29.546 22.751 29.546 41.25v168.744c0 18.499-11.874 35.076-29.546 41.249-38.068 13.298-77.603 20.954-117.788 22.865 6.651.316 13.317.493 20 .493 47.061 0 93.419-7.859 137.788-23.358 17.672-6.173 29.546-22.75 29.546-41.249v-168.745c0-18.499-11.874-35.075-29.546-41.249z" fill="#ffeebd"/><path d="m256 376.559c-43.807 0-86.959-7.315-128.259-21.742-6.224-2.174-10.406-7.979-10.406-14.445v-168.744c0-6.465 4.182-12.27 10.406-14.444 41.3-14.427 84.452-21.742 128.259-21.742s86.959 7.315 128.259 21.742c6.224 2.174 10.406 7.979 10.406 14.444v168.744c0 6.466-4.182 12.271-10.406 14.445-41.3 14.427-84.452 21.742-128.259 21.742z" fill="#cff5ff"/></g><g fill="#88e0f7"><path d="m394.656 205.219-97.55-25.812c-26.633-6.7-54.79-6.7-81.492.018l-98.301 25.732.031 15.719 101.999-26.921c24.24-6.098 49.865-6.097 74.017-.022l98.432 26.021c.643.17 2.833.673 2.833.673z"/><path d="m117.25 248.5h277.333v15h-277.333z"/></g></g></g><path d="m117.313 307.04 97.55 25.812c26.633 6.7 54.79 6.7 81.492-.018l98.301-25.732-.031-15.719-101.999 26.921c-24.24 6.098-49.865 6.097-74.017.022l-98.432-26.021c-.643-.17-2.833-.673-2.833-.673z" fill="#88e0f7"/></svg>