<svg height="512" viewBox="0 0 48 58" width="512" xmlns="http://www.w3.org/2000/svg"><g id="Page-1" fill="none" fill-rule="evenodd"><g id="035---Recycle-Bin-Bag" fill-rule="nonzero" transform="translate(0 -1)"><path id="Shape" d="m32 4v1c0 4.418278-3.581722 8-8 8s-8-3.581722-8-8v-1c-.0007449-1.32359896.8660241-2.49127941 2.1331663-2.87372597 1.2671423-.38244656 2.635187.11072645 3.3668337 1.21372597.3958427-.5990217.9968201-1.03286339 1.69-1.22.2624618-.0803611.5355124-.12081303.81-.12 1.00579-.0027254 1.9454198.50091615 2.5 1.34.3958427-.5990217.9968201-1.03286339 1.69-1.22.2624618-.0803611.5355124-.12081303.81-.12 1.6568542 0 3 1.34314575 3 3z" fill="#f3d55b"/><path id="Shape" d="m47.35 58.19-.14.14c-.7167303.7215604-1.8297453.8694148-2.71.36l-2.8-1.88-.12-.08c-.8147054.2954795-1.6461535.5425765-2.49.74-4.9541063 1.0905961-10.017812 1.6040136-15.09 1.53-5.072188.0740136-10.1358937-.4394039-15.09-1.53-.84384654-.1974235-1.67529458-.4445205-2.49-.74l-.12.08-2.8 1.88c-.88025466.5094148-1.99326973.3615604-2.71-.36l-.14-.14c-.86706657-.8881701-.86261794-2.3072835.01-3.19 4.53-4.76 5.34-11.07 5.34-15v-9c0-9.9411255 8.0588745-18 18-18s18 8.0588745 18 18v9c-.0116719 2.4300534.3147907 4.8499153.97 7.19.8074172 2.9168747 2.3064741 5.5959671 4.37 7.81.8726179.8827165.8770666 2.3018299.01 3.19z" fill="#f0c419"/><path id="Shape" d="m41.7 56.81-.12-.08c-.8147054.2954795-1.6461535.5425765-2.49.74l-1.15-.77c-.2203997-.1483028-.3727332-.3782067-.4233875-.6389823-.0506542-.2607756.0045341-.5309895.1533875-.7510177.3089386-.45754.9280112-.5822452 1.39-.28l2.58 1.73c.0223598.0136117.0425793.0304614.06.05z" fill="#f29c1f"/><path id="Shape" d="m10.06 56.7-1.15.77c-.84384654-.1974235-1.67529458-.4445205-2.49-.74l-.12.08c.01742069-.0195386.03764024-.0363883.06-.05l2.58-1.73c.46198883-.3022452 1.0810614-.17754 1.39.28.1488534.2200282.2040417.4902421.1533875.7510177-.0506543.2607756-.2029878.4906795-.4233875.6389823z" fill="#f29c1f"/><path id="Shape" d="m23.66 3.5c0 .55228475-.4477153 1-1 1s-1-.44771525-1-1c-.0018166-.39203973-.0556189-.78210709-.16-1.16.3958427-.5990217.9968201-1.03286339 1.69-1.22.314877.75372929.4747219 1.56315665.47 2.38z" fill="#f0c419"/><path id="Shape" d="m28.66 3.5c0 .55228475-.4477153 1-1 1s-1-.44771525-1-1c-.0018166-.39203973-.0556189-.78210709-.16-1.16.3958427-.5990217.9968201-1.03286339 1.69-1.22.314877.75372929.4747219 1.56315665.47 2.38z" fill="#f0c419"/><g fill="#f5efca"><path id="Shape" d="m22 43h-8l4.069-6.912.083.358c.1058383.4519769.5087967.7716931.973.772.0767534.0002461.1532726-.0084798.228-.026.5374761-.1253343.8717991-.6623994.747-1.2l-.644-2.755c-.1257913-.53707-.6627117-.8708555-1.2-.746l-2.755.643c-.5379253.1259209-.8719209.6640747-.746 1.202s.6640747.8719209 1.202.746l.446-.105-4.125 7.007c-.36405.6215504-.368625 1.3901599-.012 2.016.3476006.619605 1.0035556 1.0023092 1.714 1h8.02c.5522847 0 1-.4477153 1-1s-.4477153-1-1-1z"/><path id="Shape" d="m35.72 41.982-1.859-3.155c-.1767381-.3172742-.5115994-.5137853-.8747786-.513358-.3631791.0004274-.697577.197726-.873568.5154153-.1759909.3176892-.1659056.705822.0263466 1.0139427l1.881 3.157h-5.606l.293-.293c.3789722-.3923789.3735524-1.0160848-.0121814-1.4018186s-1.0094397-.3911536-1.4018186-.0121814l-2 2c-.3903819.3904999-.3903819 1.0235001 0 1.414l2 2c.3923789.3789722 1.0160848.3735524 1.4018186-.0121814s.3911536-1.0094397.0121814-1.4018186l-.293-.293h5.606c.7102591.0025869 1.3660472-.3802432 1.713-1 .3575038-.6264204.3525446-1.3962375-.013-2.018z"/><path id="Shape" d="m28.485 34.371c-.3512785-.0907615-.7241605.0158615-.9743553.27861-.2501947.2627486-.3384492.6404-.2306123.986818s.3948466.607253.7499676.681572l2.755.643c.5372883.1248555 1.0742087-.20893 1.2-.746l.643-2.754c.111273-.5316994-.2222677-1.0549885-.7512338-1.1786041-.528966-.1236155-1.059875.1976578-1.1957662.7236041l-.075.318-4.906-8.354c-.3554124-.6010166-1.0017601-.9697015-1.7-.9697015s-1.3445876.3686849-1.7.9697015l-2.665 4.52c-.1814909.3077843-.1849945.689013-.0091909 1.0000809s.5042055.5047164.8615.508.6892-.1842966.8706909-.4920809l2.621-4.522 4.991 8.5z"/></g></g></g></svg>