<?xml version="1.0" encoding="iso-8859-1"?>
<!-- Generator: Adobe Illustrator 19.0.0, SVG Export Plug-In . SVG Version: 6.00 Build 0)  -->
<svg version="1.1" id="Layer_1" xmlns="http://www.w3.org/2000/svg" xmlns:xlink="http://www.w3.org/1999/xlink" x="0px" y="0px"
	 viewBox="0 0 512 512" style="enable-background:new 0 0 512 512;" xml:space="preserve">
<g>
	<path style="fill:#5B5255;" d="M8.874,307.519c-2.151,0-4.303-0.822-5.945-2.462c-3.285-3.285-3.285-8.608,0-11.892l45.021-45.021
		c3.284-3.283,8.608-3.283,11.891,0c3.285,3.285,3.285,8.608,0,11.892l-45.022,45.021C13.179,306.697,11.027,307.519,8.874,307.519z
		"/>
	<path style="fill:#5B5255;" d="M33.929,336.731c-2.153,0-4.305-0.821-5.946-2.463c-3.284-3.284-3.284-8.608,0-11.892l45.022-45.02
		c3.284-3.284,8.608-3.283,11.891,0.001c3.285,3.284,3.285,8.608,0,11.892l-45.022,45.02
		C38.231,335.909,36.078,336.731,33.929,336.731z"/>
	<path style="fill:#5B5255;" d="M64.871,365.941c-2.153,0-4.305-0.821-5.946-2.462c-3.284-3.285-3.284-8.608,0-11.892l45.02-45.021
		c3.284-3.283,8.608-3.283,11.891,0c3.285,3.285,3.285,8.608,0,11.892l-45.02,45.021C69.174,365.121,67.022,365.941,64.871,365.941z
		"/>
	<path style="fill:#5B5255;" d="M95.809,395.152c-2.151,0-4.303-0.821-5.945-2.463c-3.285-3.284-3.284-8.608,0-11.891l45.021-45.017
		c3.284-3.283,8.607-3.284,11.891,0.001c3.285,3.284,3.284,8.608,0,11.892l-45.021,45.017
		C100.114,394.33,97.962,395.152,95.809,395.152z"/>
	<path style="fill:#5B5255;" d="M126.751,424.365c-2.153,0-4.305-0.821-5.946-2.462c-3.284-3.285-3.284-8.608,0-11.892l45.02-45.018
		c3.284-3.284,8.609-3.282,11.892,0c3.285,3.285,3.285,8.608,0,11.893l-45.02,45.018
		C131.053,423.543,128.901,424.365,126.751,424.365z"/>
	<path style="fill:#5B5255;" d="M157.691,453.577c-2.153,0-4.305-0.822-5.946-2.462c-3.284-3.285-3.284-8.608,0-11.892l45.02-45.02
		c3.284-3.283,8.608-3.283,11.891,0c3.285,3.285,3.285,8.608,0,11.892l-45.02,45.02
		C161.994,452.756,159.843,453.577,157.691,453.577z"/>
	<path style="fill:#5B5255;" d="M188.63,482.787c-2.151,0-4.303-0.821-5.945-2.463c-3.285-3.284-3.284-8.608,0-11.892l45.021-45.018
		c3.284-3.284,8.608-3.283,11.892,0.001c3.285,3.284,3.284,8.608,0,11.892l-45.021,45.018
		C192.935,481.966,190.782,482.787,188.63,482.787z"/>
	<path style="fill:#5B5255;" d="M213.683,512c-2.151,0-4.303-0.821-5.945-2.462c-3.285-3.285-3.285-8.608,0-11.892l45.021-45.02
		c3.284-3.283,8.608-3.283,11.892,0c3.285,3.285,3.285,8.608,0,11.892l-45.021,45.02C217.988,511.179,215.836,512,213.683,512z"/>
</g>
<g style="opacity:0.15;">
	<path style="fill:#231F20;" d="M8.874,307.519c-2.151,0-4.303-0.822-5.945-2.462c-3.285-3.285-3.285-8.608,0-11.892l45.021-45.021
		c3.284-3.283,8.608-3.283,11.891,0c3.285,3.285,3.285,8.608,0,11.892l-45.022,45.021C13.179,306.697,11.027,307.519,8.874,307.519z
		"/>
</g>
<g style="opacity:0.15;">
	<path style="fill:#231F20;" d="M33.929,336.731c-2.153,0-4.305-0.821-5.946-2.463c-3.284-3.284-3.284-8.608,0-11.892l45.022-45.02
		c3.284-3.284,8.608-3.283,11.891,0.001c3.285,3.284,3.285,8.608,0,11.892l-45.022,45.02
		C38.231,335.909,36.078,336.731,33.929,336.731z"/>
</g>
<g style="opacity:0.15;">
	<path style="fill:#231F20;" d="M64.871,365.941c-2.153,0-4.305-0.821-5.946-2.462c-3.284-3.285-3.284-8.608,0-11.892l45.02-45.021
		c3.284-3.283,8.608-3.283,11.891,0c3.285,3.285,3.285,8.608,0,11.892l-45.02,45.021C69.174,365.121,67.022,365.941,64.871,365.941z
		"/>
</g>
<g style="opacity:0.15;">
	<path style="fill:#231F20;" d="M95.809,395.152c-2.151,0-4.303-0.821-5.945-2.463c-3.285-3.284-3.284-8.608,0-11.891l45.021-45.017
		c3.284-3.283,8.607-3.284,11.891,0.001c3.285,3.284,3.284,8.608,0,11.892l-45.021,45.017
		C100.114,394.33,97.962,395.152,95.809,395.152z"/>
</g>
<g style="opacity:0.15;">
	<path style="fill:#231F20;" d="M126.751,424.365c-2.153,0-4.305-0.821-5.946-2.462c-3.284-3.285-3.284-8.608,0-11.892l45.02-45.018
		c3.284-3.284,8.609-3.282,11.892,0c3.285,3.285,3.285,8.608,0,11.893l-45.02,45.018
		C131.053,423.543,128.901,424.365,126.751,424.365z"/>
</g>
<g style="opacity:0.15;">
	<path style="fill:#231F20;" d="M157.691,453.577c-2.153,0-4.305-0.822-5.946-2.462c-3.284-3.285-3.284-8.608,0-11.892l45.02-45.02
		c3.284-3.283,8.608-3.283,11.891,0c3.285,3.285,3.285,8.608,0,11.892l-45.02,45.02
		C161.994,452.756,159.843,453.577,157.691,453.577z"/>
</g>
<g style="opacity:0.15;">
	<path style="fill:#231F20;" d="M188.63,482.787c-2.151,0-4.303-0.821-5.945-2.463c-3.285-3.284-3.284-8.608,0-11.892l45.021-45.018
		c3.284-3.284,8.608-3.283,11.892,0.001c3.285,3.284,3.284,8.608,0,11.892l-45.021,45.018
		C192.935,481.966,190.782,482.787,188.63,482.787z"/>
</g>
<g style="opacity:0.15;">
	<path style="fill:#231F20;" d="M213.683,512c-2.151,0-4.303-0.821-5.945-2.462c-3.285-3.285-3.285-8.608,0-11.892l45.021-45.02
		c3.284-3.283,8.608-3.283,11.892,0c3.285,3.285,3.285,8.608,0,11.892l-45.021,45.02C217.988,511.179,215.836,512,213.683,512z"/>
</g>
<g>
	<path style="fill:#7C4A3A;" d="M162.973,342.003c-2.151,0-4.303-0.821-5.945-2.462l-53.558-53.559
		c-2.464-2.464-3.154-6.193-1.731-9.375c1.42-3.182,4.665-5.15,8.137-4.967l101.546,5.571c3.313,0.18,6.208,2.294,7.393,5.391
		c1.186,3.099,0.438,6.604-1.907,8.95l-47.988,47.988C167.278,341.182,165.125,342.003,162.973,342.003z M130.907,289.636
		l32.067,32.067l28.733-28.732L130.907,289.636z"/>
	<path style="fill:#7C4A3A;" d="M233.63,412.456c-2.186,0-4.336-0.852-5.949-2.462l-53.559-53.559
		c-1.576-1.577-2.462-3.717-2.462-5.946c0-2.23,0.886-4.369,2.462-5.946l47.989-47.988c2.345-2.345,5.852-3.092,8.949-1.907
		c3.099,1.185,5.211,4.081,5.394,7.393l5.536,100.925c0.046,0.354,0.071,0.716,0.071,1.084c0,4.615-3.718,8.36-8.321,8.408
		C233.703,412.456,233.667,412.456,233.63,412.456z M191.96,350.489l32.068,32.068l-3.335-60.8L191.96,350.489z"/>
</g>
<path style="fill:#5B5255;" d="M281.65,439.659L72.997,231.005c-1.052-1.052-2.477-1.642-3.963-1.642s-2.913,0.59-3.964,1.642
	l-17.753,17.753c-2.19,2.188-2.19,5.738,0,7.926l208.653,208.653c1.095,1.095,2.529,1.642,3.964,1.642
	c1.434,0,2.869-0.547,3.963-1.642l17.753-17.751c1.052-1.053,1.641-2.478,1.641-3.964
	C283.291,442.136,282.701,440.711,281.65,439.659z"/>
<polyline style="fill:#9B624C;" points="352.793,131.163 162.973,320.982 192.481,350.489 220.621,322.349 446.909,96.061 
	417.4,66.554 372.6,111.355 "/>
<polygon style="opacity:0.15;fill:#231F20;enable-background:new    ;" points="394.906,113.94 422.761,86.082 429.844,78.997 
	417.4,66.554 372.6,111.355 352.793,131.163 162.973,320.982 175.417,333.426 "/>
<g>
	<path style="fill:#5B5255;" d="M446.91,104.469c-2.188,0-4.339-0.854-5.948-2.462l-29.507-29.506
		c-2.412-2.412-3.128-6.042-1.813-9.189l17.303-41.394c1.081-2.586,3.38-4.464,6.131-5.007c2.749-0.538,5.59,0.322,7.572,2.304
		l53.599,53.598c1.982,1.983,2.847,4.823,2.304,7.573c-0.542,2.75-2.419,5.049-5.006,6.131l-41.396,17.3
		C449.103,104.256,448.001,104.469,446.91,104.469z M427.333,64.596l21.534,21.532l24.622-10.292l-35.864-35.862L427.333,64.596z"/>
	<path style="fill:#5B5255;" d="M507.726,91.738c5.079-5.079,5.079-13.314,0-18.393L438.19,3.81c-5.079-5.08-13.313-5.08-18.392,0
		c-5.079,5.079-5.079,13.312,0,18.392l69.534,69.535C494.413,96.815,502.647,96.815,507.726,91.738z"/>
</g>
<g>
</g>
<g>
</g>
<g>
</g>
<g>
</g>
<g>
</g>
<g>
</g>
<g>
</g>
<g>
</g>
<g>
</g>
<g>
</g>
<g>
</g>
<g>
</g>
<g>
</g>
<g>
</g>
<g>
</g>
</svg>
