<?xml version="1.0" encoding="iso-8859-1"?>
<!-- Generator: Adobe Illustrator 19.0.0, SVG Export Plug-In . SVG Version: 6.00 Build 0)  -->
<svg version="1.1" id="Capa_1" xmlns="http://www.w3.org/2000/svg" xmlns:xlink="http://www.w3.org/1999/xlink" x="0px" y="0px"
	 viewBox="0 0 447.008 447.008" style="enable-background:new 0 0 447.008 447.008;" xml:space="preserve">
<path style="fill:#B6C1CC;" d="M222.768,256.8l-47.68,54.992v-0.4l0.304-0.352l-0.304,0.336l0.304-71.088l-32.384-11.28v80.8
	c0,15.76,10.656,30.384,26.176,33.168c12.464,2.24,23.712-2.864,30.688-11.552l55.184-63.408L222.768,256.8z"/>
<circle style="fill:#010101;" cx="383.008" cy="295.504" r="64"/>
<path style="fill:#EE7B4A;" d="M447.008,102.992c0-8.512-6.976-15.488-15.488-15.488H110.496c-8.512,0-15.488,6.976-15.488,15.488
	V104c0,8.528,6.976,15.504,15.488,15.504h3.984l9.408,56.928c1.952,11.792,10.304,21.52,21.68,25.216l119.04,38.704
	c23.616,7.68,49.536,1.008,66.496-17.12l97.152-103.728h3.248c8.528,0,15.504-6.976,15.504-15.488V102.992z"/>
<circle style="fill:#B6C1CC;" cx="383.008" cy="295.504" r="32"/>
<path style="fill:#643A20;" d="M388.112,280.496L16.448,159.648c-1.376-0.544-2.864-0.896-4.448-0.896c-6.624,0-12,5.376-12,12
	c0,5.136,3.248,9.44,7.792,11.152L378.048,310.88c8.368,2.768,17.408-1.76,20.208-10.128
	C401.056,292.352,396.512,283.28,388.112,280.496z"/>
<g>
	<polygon style="fill:#92A2B3;" points="143.008,229.12 143.008,257.776 175.264,269.792 175.392,240.432 	"/>
	<polygon style="fill:#92A2B3;" points="254.896,268.208 222.64,256.944 202.64,280 234.336,291.824 	"/>
</g>
<path style="fill:#482C1B;" d="M0,170.752c0,5.136,3.248,9.44,7.792,11.152L378.048,310.88c8.368,2.768,17.408-1.76,20.208-10.128
	L0,170.752z"/>
<path style="fill:#9F5332;" d="M428.256,119.504h-313.76l3.488,16h169.024L202.4,220.112l62.208,20.224
	c23.616,7.68,49.536,1.008,66.496-17.12L428.256,119.504z"/>
<g>
</g>
<g>
</g>
<g>
</g>
<g>
</g>
<g>
</g>
<g>
</g>
<g>
</g>
<g>
</g>
<g>
</g>
<g>
</g>
<g>
</g>
<g>
</g>
<g>
</g>
<g>
</g>
<g>
</g>
</svg>
